HIERARCHY
ROOT Hips
{
	OFFSET 0.000000 0.000000 0.000000
	CHANNELS 6 Xposition Yposition Zposition Zrotation Yrotation Xrotation 
	JOINT LeftUpLeg_virtual
	{
		OFFSET 0.000000 0.000000 0.000000
		CHANNELS 3 Zrotation Yrotation Xrotation
		JOINT LeftUpLeg
		{
			OFFSET 10.205400 -3.823500 0.155100
			CHANNELS 3 Zrotation Yrotation Xrotation
			JOINT LeftLeg
			{
				OFFSET 0.708757 -12.982077 0.567790
				CHANNELS 3 Zrotation Yrotation Xrotation
				JOINT LeftFoot
				{
					OFFSET -0.708756 -10.717838 -2.184338
					CHANNELS 3 Zrotation Yrotation Xrotation
					JOINT LeftToeBase
					{
						OFFSET 0.108149 -7.191104 7.560241
						CHANNELS 3 Zrotation Yrotation Xrotation
						End Site
						{
							OFFSET 0.000000 0.000000 0.000000
						}
					}
				}
			}
		}
	}
	JOINT RightUpLeg_virtual
	{
		OFFSET 0.000000 0.000000 0.000000
		CHANNELS 3 Zrotation Yrotation Xrotation
		JOINT RightUpLeg
		{
			OFFSET -10.205400 -3.823500 0.005500
			CHANNELS 3 Zrotation Yrotation Xrotation
			JOINT RightLeg
			{
				OFFSET -0.708756 -12.982134 0.610632
				CHANNELS 3 Zrotation Yrotation Xrotation
				JOINT RightFoot
				{
					OFFSET 0.708754 -10.717769 -1.945823
					CHANNELS 3 Zrotation Yrotation Xrotation
					JOINT RightToeBase
					{
						OFFSET -0.108140 -7.191069 7.372968
						CHANNELS 3 Zrotation Yrotation Xrotation
						End Site
						{
							OFFSET 0.000000 0.000000 0.000000
						}
					}
				}
			}
		}
	}
	JOINT Spine_virtual
	{
		OFFSET 0.000000 0.000000 0.000000
		CHANNELS 3 Zrotation Yrotation Xrotation
		JOINT Spine
		{
			OFFSET 0.000000 6.876099 0.125700
			CHANNELS 3 Zrotation Yrotation Xrotation
			JOINT Spine1
			{
				OFFSET 0.000000 8.022060 0.146608
				CHANNELS 3 Zrotation Yrotation Xrotation
				JOINT Spine2
				{
					OFFSET 0.000000 9.168068 0.167552
					CHANNELS 3 Zrotation Yrotation Xrotation
					JOINT Neck_virtual
					{
						OFFSET 0.000000 0.000000 0.000000
						CHANNELS 3 Zrotation Yrotation Xrotation
						JOINT Neck
						{
							OFFSET 0.000000 10.314075 0.188496
							CHANNELS 3 Zrotation Yrotation Xrotation
							JOINT Head
							{
								OFFSET 0.000000 7.643700 -2.377400
								CHANNELS 3 Zrotation Yrotation Xrotation
								End Site
								{
									OFFSET 0.000000 0.000000 0.000000
								}
							}
						}
					}
					JOINT LeftShoulder_virtual
					{
						OFFSET 0.000000 0.000000 0.000000
						CHANNELS 3 Zrotation Yrotation Xrotation
						JOINT LeftShoulder
						{
							OFFSET 4.392200 8.824978 0.174984
							CHANNELS 3 Zrotation Yrotation Xrotation
							JOINT LeftArm
							{
								OFFSET 8.771219 -2.981674 -0.026999
								CHANNELS 3 Zrotation Yrotation Xrotation
								JOINT LeftForeArm
								{
									OFFSET 8.512804 0.000000 -0.000000
									CHANNELS 3 Zrotation Yrotation Xrotation
									JOINT LeftHand
									{
										OFFSET 18.484802 0.000000 -0.000000
										CHANNELS 3 Zrotation Yrotation Xrotation
										End Site
										{
											OFFSET 0.000000 0.000000 0.000000
										}
									}
								}
							}
						}
					}
					JOINT RightShoulder_virtual
					{
						OFFSET 0.000000 0.000000 0.000000
						CHANNELS 3 Zrotation Yrotation Xrotation
						JOINT RightShoulder
						{
							OFFSET -4.392200 8.824993 0.141379
							CHANNELS 3 Zrotation Yrotation Xrotation
							JOINT RightArm
							{
								OFFSET -8.771282 -2.981682 -0.094208
								CHANNELS 3 Zrotation Yrotation Xrotation
								JOINT RightForeArm
								{
									OFFSET -8.494598 0.000000 0.000000
									CHANNELS 3 Zrotation Yrotation Xrotation
									JOINT RightHand
									{
										OFFSET -18.483803 0.000000 0.000001
										CHANNELS 3 Zrotation Yrotation Xrotation
										End Site
										{
											OFFSET 0.000000 0.000000 0.000000
										}
									}
								}
							}
						}
					}
				}
			}
		}
	}
}
MOTION
Frames: 10
Frame Time: 0.033333
1.752992 36.588646 -9.443626 179.922496 1.713898 -179.505035 -2.822074 -3.245565 9.755947 -3.035157 -0.129758 -12.920389 15.883762 7.795635 20.838216 -4.231162 1.734640 9.807255 0.000000 0.000000 0.000000 2.189319 -0.879702 7.971162 -0.763560 3.758893 -6.969496 -7.533398 2.868745 13.647285 8.494137 5.750383 8.495200 0.000000 0.000000 0.000000 1.019332 0.802629 -5.605486 -4.607619 4.272228 -6.450148 -0.184767 -3.244713 4.173847 0.026666 0.027790 0.087272 -0.695453 -1.336972 6.170617 0.209439 -3.581257 10.910081 0.000000 0.000000 0.000000 0.873625 -0.461696 3.019526 6.547810 -0.801125 -4.949495 -8.882538 24.425074 -38.069716 -0.281943 -45.067665 -6.512549 0.000000 0.000000 0.000000 -2.882661 0.227794 2.684658 6.058260 -10.825430 -7.901163 16.146174 -28.085936 -37.957045 0.779597 39.523245 -3.589025 0.000000 0.000000 0.000000 
1.749134 36.580437 -9.457322 179.913275 1.569815 -179.233139 -2.589518 -3.022723 10.090710 -3.444764 0.075394 -12.577574 16.305337 7.715725 21.161736 -4.221995 1.692300 10.374423 0.000000 0.000000 0.000000 2.380124 -0.893757 8.072832 -1.209570 4.224820 -6.848746 -7.405014 3.476340 13.700968 9.221668 6.211374 8.764849 0.000000 0.000000 0.000000 0.975069 0.786647 -5.710925 -4.627051 4.222410 -6.569915 -0.205291 -3.247470 4.076218 0.049162 0.002842 0.152667 -0.751743 -1.341314 6.206245 0.177913 -3.627324 10.898549 0.000000 0.000000 0.000000 0.869379 -0.502072 3.102986 6.567314 -0.791062 -5.034888 -8.805383 24.462434 -38.001810 -0.341337 -45.047140 -6.458643 0.000000 0.000000 0.000000 -2.875464 0.246204 2.544833 6.044081 -10.810475 -7.687048 16.219208 -28.157648 -38.131242 0.673403 39.565589 -3.705848 0.000000 0.000000 0.000000 
1.742834 36.572525 -9.474393 179.823417 1.626022 -179.236567 -2.678316 -2.975020 10.087413 -3.481713 0.063288 -12.541102 16.333556 7.713225 21.193087 -4.142476 1.636040 10.353742 0.000000 0.000000 0.000000 2.297321 -0.842486 8.084307 -1.171559 4.243483 -6.791309 -7.487162 3.422405 13.689259 9.311238 6.120938 8.697225 0.000000 0.000000 0.000000 0.908001 0.811776 -5.693174 -4.633586 4.197635 -6.598493 -0.221587 -3.243374 4.114056 0.053505 -0.001051 0.178975 -0.721060 -1.438090 6.152269 0.215769 -3.597236 10.917922 0.000000 0.000000 0.000000 0.883964 -0.468291 3.024431 6.481934 -0.699025 -5.195383 -8.675381 24.527237 -37.727711 -0.288327 -45.004274 -6.499045 0.000000 0.000000 0.000000 -2.869600 0.290178 2.629076 6.095920 -10.753607 -7.700284 16.258227 -28.111411 -38.230225 0.846115 39.349072 -3.521608 0.000000 0.000000 0.000000 
1.725704 36.558006 -9.485533 179.882444 1.658184 -179.217784 -2.542413 -2.927972 10.056712 -3.555925 0.041380 -12.499232 16.227940 7.718630 21.207488 -4.017583 1.591550 10.285748 0.000000 0.000000 0.000000 2.320598 -0.754535 8.093400 -1.089114 4.260355 -6.731029 -7.580625 3.595175 13.605371 9.412672 6.063264 8.716361 0.000000 0.000000 0.000000 0.984726 0.741989 -5.662337 -4.537121 4.239881 -6.662587 -0.232398 -3.145676 4.154612 0.042720 -0.092275 0.122448 -0.747178 -1.322987 6.139273 0.304954 -3.533252 10.806855 0.000000 0.000000 0.000000 0.859714 -0.416666 2.965060 6.463843 -0.593243 -5.234166 -8.696148 24.497676 -37.866077 -0.261966 -44.889772 -6.519845 0.000000 0.000000 0.000000 -2.895140 0.330939 2.539874 6.164707 -10.691057 -7.823264 16.375068 -28.107338 -38.394314 0.685505 39.199545 -3.666804 0.000000 0.000000 0.000000 
1.713099 36.549889 -9.486137 179.809689 1.588746 -179.259039 -2.584649 -2.896693 10.029959 -3.586549 0.056240 -12.461663 16.204919 7.623925 21.181764 -3.987683 1.477754 10.231732 0.000000 0.000000 0.000000 2.263653 -0.734113 8.150186 -1.036087 4.096180 -6.660710 -7.827920 3.442591 13.549806 9.602151 5.931306 8.591571 0.000000 0.000000 0.000000 0.922327 0.854036 -5.534197 -4.502480 4.110810 -6.768478 -0.260443 -3.194175 4.172723 0.050093 -0.009885 0.187460 -0.750672 -1.427145 6.143074 0.326911 -3.500778 10.966878 0.000000 0.000000 0.000000 0.874615 -0.426996 3.014647 6.333290 -0.529464 -5.018758 -8.695760 24.539393 -37.788100 -0.142050 -44.769940 -6.627341 0.000000 0.000000 0.000000 -2.919240 0.351754 2.619863 6.226157 -10.696758 -7.787528 16.537718 -28.216905 -38.635908 0.843698 39.065468 -3.498343 0.000000 0.000000 0.000000 
1.696147 36.544189 -9.479276 179.889834 1.661388 -179.293941 -2.439654 -2.795692 10.064189 -3.617493 0.109175 -12.434747 15.957181 7.648502 21.072945 -3.884529 1.462401 10.156778 0.000000 0.000000 0.000000 2.333914 -0.596729 8.203110 -1.028617 4.129245 -6.626314 -7.814866 3.594375 13.444754 9.662932 5.845458 8.605883 0.000000 0.000000 0.000000 1.034502 0.916034 -5.368741 -4.376958 4.061538 -6.927884 -0.277051 -3.158745 4.202947 0.042483 -0.004307 0.087636 -0.810730 -1.215637 6.165831 0.378561 -3.418662 11.023201 0.000000 0.000000 0.000000 0.823110 -0.332494 3.064685 6.267783 -0.360321 -5.289484 -8.610808 24.622811 -37.549617 -0.205453 -44.684511 -6.521735 0.000000 0.000000 0.000000 -2.964650 0.423682 2.661279 6.326290 -10.639115 -7.895034 16.623212 -28.374834 -38.660606 0.701670 39.012931 -3.628062 0.000000 0.000000 0.000000 
1.683766 36.551678 -9.468421 179.922551 1.654385 -179.287630 -2.349613 -2.843875 10.112969 -3.591937 0.160530 -12.425671 15.687642 7.654233 20.939934 -3.780756 1.496897 10.149320 0.000000 0.000000 0.000000 2.354221 -0.609334 8.309139 -1.067523 4.160033 -6.646148 -7.859907 3.639552 13.259355 9.746811 5.718677 8.535248 0.000000 0.000000 0.000000 1.074256 0.931119 -5.211358 -4.279271 3.962106 -7.117800 -0.315640 -3.084755 4.296804 0.031034 0.007169 0.100896 -0.815322 -1.181891 6.164594 0.424950 -3.329560 11.049715 0.000000 0.000000 0.000000 0.812430 -0.294618 3.074203 6.137981 -0.256184 -5.557648 -8.607923 24.787595 -37.431704 -0.151962 -44.569819 -6.525972 0.000000 0.000000 0.000000 -2.984797 0.429211 2.605863 6.427291 -10.608245 -7.973909 16.643737 -28.437583 -38.761573 0.685570 39.027387 -3.611849 0.000000 0.000000 0.000000 
1.682979 36.573486 -9.439816 179.803569 1.656036 -179.342818 -2.513760 -2.843911 10.197777 -3.427756 0.202759 -12.410888 15.363563 7.649036 20.709916 -3.689647 1.576769 10.136120 0.000000 0.000000 0.000000 2.312597 -0.607821 8.459959 -1.161213 4.071100 -6.675807 -7.856102 3.484256 13.098076 9.902151 5.626740 8.483506 0.000000 0.000000 0.000000 1.061747 0.949606 -4.919918 -4.234421 3.822795 -7.346495 -0.363426 -3.029528 4.326766 0.026065 0.001033 0.123979 -0.776596 -1.214500 6.232324 0.493650 -3.174297 11.289348 0.000000 0.000000 0.000000 0.842196 -0.214491 3.121256 5.981610 -0.179375 -5.561328 -8.580287 25.069660 -37.169070 0.028268 -44.540517 -6.616515 0.000000 0.000000 0.000000 -2.952927 0.551198 2.677645 6.526979 -10.483767 -7.907838 16.690552 -28.690841 -38.909163 0.797021 39.089681 -3.451678 0.000000 0.000000 0.000000 
1.694691 36.597412 -9.384532 179.910816 1.534974 -179.400560 -2.395742 -2.871468 10.254392 -3.213431 0.226885 -12.410055 15.002036 7.651336 20.412184 -3.675251 1.641163 10.132604 0.000000 0.000000 0.000000 2.442603 -0.629325 8.629678 -1.157021 3.895799 -6.692227 -7.912882 3.395556 12.871432 9.929242 5.575993 8.512081 0.000000 0.000000 0.000000 1.180916 0.993868 -4.651719 -4.102643 3.621885 -7.574188 -0.365257 -2.995753 4.430985 0.038110 -0.015646 0.101905 -0.829784 -1.033775 6.250048 0.478207 -3.056246 11.510188 0.000000 0.000000 0.000000 0.785650 -0.141117 3.157345 5.810585 -0.197397 -5.486496 -8.504905 25.366185 -36.849048 0.077195 -44.719400 -6.507210 0.000000 0.000000 0.000000 -3.023635 0.588848 2.827757 6.668003 -10.373386 -8.117073 16.718730 -28.994911 -39.077995 0.817310 39.081919 -3.397408 0.000000 0.000000 0.000000 
1.724138 36.626293 -9.307822 179.908508 1.617539 -179.448713 -2.387040 -2.861095 10.270421 -2.889997 0.126074 -12.400534 14.354268 7.705758 20.130763 -3.616813 1.776834 10.086665 0.000000 0.000000 0.000000 2.452614 -0.565935 8.800035 -1.118030 3.682921 -6.681195 -7.914290 3.243554 12.641057 9.980311 5.596174 8.540639 0.000000 0.000000 0.000000 1.226999 1.010074 -4.348051 -4.008607 3.471374 -7.806214 -0.389406 -2.836861 4.535749 0.033105 0.086068 0.135816 -0.847365 -1.025625 6.362953 0.430321 -2.944336 11.836009 0.000000 0.000000 0.000000 0.783336 -0.100396 3.241312 5.590871 -0.225636 -5.911098 -8.385504 25.617690 -36.492656 0.314068 -45.040241 -6.550930 0.000000 0.000000 0.000000 -3.004667 0.683429 2.834874 6.844412 -10.190302 -7.938284 16.834567 -29.357143 -39.345527 0.787859 39.190024 -3.416354 0.000000 0.000000 0.000000 
